<mxfile host="app.diagrams.net" modified="2024-06-22T06:07:26.053Z" agent="Mozilla/5.0 (Windows NT 10.0; Win64; x64) AppleWebKit/537.36 (KHTML, like Gecko) Chrome/126.0.0.0 Safari/537.36 Edg/126.0.0.0" version="24.6.1" etag="wn-G2RNSVKvWy8lP4IU-" type="github">
  <diagram name="第 1 页" id="qCbH65epUD-Zp7Ydt1fE">
    <mxGraphModel>
      <root>
        <mxCell id="0" />
        <mxCell id="1" parent="0" />
        <mxCell id="2" value="基础设施" style="whiteSpace=wrap;strokeWidth=2;verticalAlign=top;" vertex="1" parent="1">
          <mxGeometry width="536" height="166" as="geometry" />
        </mxCell>
        <mxCell id="3" value="安全网关" style="ellipse;aspect=fixed;strokeWidth=2;whiteSpace=wrap;" vertex="1" parent="2">
          <mxGeometry x="164" y="51" width="80" height="80" as="geometry" />
        </mxCell>
        <mxCell id="4" value="负载均衡" style="ellipse;aspect=fixed;strokeWidth=2;whiteSpace=wrap;" vertex="1" parent="2">
          <mxGeometry x="33" y="51" width="81" height="81" as="geometry" />
        </mxCell>
        <mxCell id="5" value="日志监控" style="ellipse;aspect=fixed;strokeWidth=2;whiteSpace=wrap;" vertex="1" parent="2">
          <mxGeometry x="294" y="52" width="79" height="79" as="geometry" />
        </mxCell>
        <mxCell id="6" value="自动化部署" style="ellipse;aspect=fixed;strokeWidth=2;whiteSpace=wrap;" vertex="1" parent="2">
          <mxGeometry x="423" y="43" width="96" height="96" as="geometry" />
        </mxCell>
        <mxCell id="7" value="" style="curved=1;startArrow=none;endArrow=block;exitX=1;exitY=0.49;entryX=0;entryY=0.5;" edge="1" parent="2" source="4" target="3">
          <mxGeometry relative="1" as="geometry">
            <Array as="points" />
          </mxGeometry>
        </mxCell>
        <mxCell id="8" value="" style="curved=1;startArrow=none;endArrow=block;exitX=1;exitY=0.5;entryX=0;entryY=0.49;" edge="1" parent="2" source="3" target="5">
          <mxGeometry relative="1" as="geometry">
            <Array as="points" />
          </mxGeometry>
        </mxCell>
        <mxCell id="9" value="" style="curved=1;startArrow=none;endArrow=block;exitX=1;exitY=0.49;entryX=0;entryY=0.5;" edge="1" parent="2" source="5" target="6">
          <mxGeometry relative="1" as="geometry">
            <Array as="points" />
          </mxGeometry>
        </mxCell>
        <mxCell id="10" value="业务逻辑" style="whiteSpace=wrap;strokeWidth=2;verticalAlign=top;" vertex="1" parent="1">
          <mxGeometry x="586" y="1" width="357" height="165" as="geometry" />
        </mxCell>
        <mxCell id="11" value="数据库" style="ellipse;aspect=fixed;strokeWidth=2;whiteSpace=wrap;" vertex="1" parent="10">
          <mxGeometry x="178" y="59" width="64" height="64" as="geometry" />
        </mxCell>
        <mxCell id="12" value="服务端应用" style="ellipse;aspect=fixed;strokeWidth=2;whiteSpace=wrap;" vertex="1" parent="10">
          <mxGeometry x="33" y="43" width="95" height="95" as="geometry" />
        </mxCell>
        <mxCell id="13" value="缓存" style="ellipse;aspect=fixed;strokeWidth=2;whiteSpace=wrap;" vertex="1" parent="10">
          <mxGeometry x="292" y="67" width="48" height="48" as="geometry" />
        </mxCell>
        <mxCell id="14" value="" style="curved=1;startArrow=none;endArrow=block;exitX=-5.17;exitY=0.49;entryX=-9.16;entryY=0.48;" edge="1" parent="10" source="12" target="11">
          <mxGeometry relative="1" as="geometry">
            <Array as="points" />
          </mxGeometry>
        </mxCell>
        <mxCell id="15" value="" style="curved=1;startArrow=none;endArrow=block;exitX=-8.16;exitY=0.48;entryX=-12.21;entryY=0.47;" edge="1" parent="10" source="11" target="13">
          <mxGeometry relative="1" as="geometry">
            <Array as="points" />
          </mxGeometry>
        </mxCell>
        <mxCell id="16" value="用户界面" style="whiteSpace=wrap;strokeWidth=2;verticalAlign=top;" vertex="1" parent="1">
          <mxGeometry x="993" y="8" width="363" height="150" as="geometry" />
        </mxCell>
        <mxCell id="17" value="数据交互" style="ellipse;aspect=fixed;strokeWidth=2;whiteSpace=wrap;" vertex="1" parent="16">
          <mxGeometry x="145" y="43" width="80" height="80" as="geometry" />
        </mxCell>
        <mxCell id="18" value="前端UI" style="ellipse;aspect=fixed;strokeWidth=2;whiteSpace=wrap;" vertex="1" parent="16">
          <mxGeometry x="33" y="52" width="62" height="62" as="geometry" />
        </mxCell>
        <mxCell id="19" value="API接口" style="ellipse;aspect=fixed;strokeWidth=2;whiteSpace=wrap;" vertex="1" parent="16">
          <mxGeometry x="275" y="48" width="71" height="71" as="geometry" />
        </mxCell>
        <mxCell id="20" value="" style="curved=1;startArrow=none;endArrow=block;exitX=-15.02;exitY=0.37;entryX=-12.41;entryY=0.4;" edge="1" parent="16" source="18" target="17">
          <mxGeometry relative="1" as="geometry">
            <Array as="points" />
          </mxGeometry>
        </mxCell>
        <mxCell id="21" value="" style="curved=1;startArrow=none;endArrow=block;exitX=-11.41;exitY=0.4;entryX=-13.99;entryY=0.38;" edge="1" parent="16" source="17" target="19">
          <mxGeometry relative="1" as="geometry">
            <Array as="points" />
          </mxGeometry>
        </mxCell>
      </root>
    </mxGraphModel>
  </diagram>
</mxfile>
